<svg width="56" height="56" viewBox="0 0 56 56" fill="none" xmlns="http://www.w3.org/2000/svg">
<rect width="56" height="56" rx="8" fill="#F3F6FD"/>
<path d="M24.222 34.2146L22.2587 36.9631C22.1784 37.0757 22.1382 37.132 22.1035 37.1756C21.3206 38.161 19.8685 38.2812 18.9342 37.4379C18.8929 37.4006 18.8439 37.3516 18.7462 37.2539C18.6484 37.1561 18.5995 37.1072 18.5621 37.0658C17.7188 36.1315 17.839 34.6794 18.8244 33.8965C18.868 33.8619 18.9245 33.8215 19.0369 33.7413L21.7854 31.778M24.222 34.2146C23.868 33.8931 23.4674 33.4924 22.9875 33.0125C22.5077 32.5327 22.1069 32.1319 21.7854 31.778M24.222 34.2146C24.9407 34.8673 25.4668 35.1937 26.0721 35.1937C26.9756 35.1937 27.7026 34.4666 29.1567 33.0125L33.0125 29.1567C34.4666 27.7026 35.1937 26.9756 35.1937 26.0721C35.1937 25.4668 34.8673 24.9407 34.2146 24.222M21.7854 31.778C21.1327 31.0593 20.8063 30.5332 20.8063 29.9279C20.8063 29.0244 21.5334 28.2974 22.9875 26.8433L26.8433 22.9875C28.2974 21.5334 29.0244 20.8063 29.9279 20.8063C30.5332 20.8063 31.0593 21.1327 31.778 21.7854M34.2146 24.222L36.9631 22.2587C37.0757 22.1784 37.132 22.1382 37.1756 22.1035C38.161 21.3206 38.2812 19.8685 37.4379 18.9342C37.4006 18.8929 37.3516 18.8439 37.2539 18.7462C37.1561 18.6484 37.1072 18.5995 37.0658 18.5621C36.1315 17.7188 34.6794 17.839 33.8965 18.8244C33.8619 18.868 33.8215 18.9245 33.7413 19.0369L31.778 21.7854M34.2146 24.222C33.8931 23.868 33.4924 23.4674 33.0125 22.9875C32.5327 22.5077 32.1319 22.1069 31.778 21.7854" stroke="#1279BE" stroke-width="1.5"/>
</svg>
