<svg width="57" height="56" viewBox="0 0 57 56" fill="none" xmlns="http://www.w3.org/2000/svg">
<rect x="0.666504" width="56" height="56" rx="8" fill="#F3F6FD"/>
<path d="M18.6665 21.6842C18.6665 19.6495 20.316 18 22.3507 18C24.3854 18 26.0349 19.6495 26.0349 21.6842V30.6316V31.6842C26.0349 35.1723 28.8626 38 32.3507 38C35.8388 38 38.6665 35.1723 38.6665 31.6842V30.5" stroke="#1279BE" stroke-width="1.5" stroke-linecap="round"/>
<path d="M38.6665 30.5C38.6665 31.8807 35.7204 33 32.6665 33C29.6126 33 26.1665 31.8807 26.1665 30.5C26.1665 29.1193 29.6126 28 32.6665 28C35.7204 28 38.6665 29.1193 38.6665 30.5Z" stroke="#1279BE" stroke-width="1.5"/>
</svg>
