<svg width="57" height="56" viewBox="0 0 57 56" fill="none" xmlns="http://www.w3.org/2000/svg">
<rect x="0.333496" width="56" height="56" rx="8" fill="#F3F6FD"/>
<path d="M35.3335 34H36.0835H35.3335ZM21.3335 30.584H22.0835C22.0835 30.2859 21.9069 30.016 21.6338 29.8967L21.3335 30.584ZM35.3335 30.584L35.0332 29.8967C34.76 30.016 34.5835 30.2859 34.5835 30.584H35.3335ZM32.0835 23C32.0835 23.4142 32.4193 23.75 32.8335 23.75C33.2477 23.75 33.5835 23.4142 33.5835 23H32.0835ZM23.0835 23C23.0835 23.4142 23.4193 23.75 23.8335 23.75C24.2477 23.75 24.5835 23.4142 24.5835 23H23.0835ZM23.3335 21V20.25C20.1579 20.25 17.5835 22.8244 17.5835 26H18.3335H19.0835C19.0835 23.6528 20.9863 21.75 23.3335 21.75V21ZM33.3335 21V21.75C35.6807 21.75 37.5835 23.6528 37.5835 26H38.3335H39.0835C39.0835 22.8244 36.5091 20.25 33.3335 20.25V21ZM31.3335 38V37.25H25.3335V38V38.75H31.3335V38ZM25.3335 38V37.25C24.3695 37.25 23.7219 37.2484 23.2389 37.1835C22.7774 37.1214 22.5799 37.0142 22.4496 36.8839L21.9193 37.4142L21.389 37.9445C21.8444 38.4 22.4112 38.5857 23.039 38.6701C23.6452 38.7516 24.4119 38.75 25.3335 38.75V38ZM21.3335 34H20.5835C20.5835 34.9216 20.5819 35.6883 20.6634 36.2945C20.7478 36.9223 20.9335 37.4891 21.389 37.9445L21.9193 37.4142L22.4496 36.8839C22.3193 36.7536 22.2121 36.5561 22.15 36.0946C22.0851 35.6116 22.0835 34.964 22.0835 34H21.3335ZM35.3335 34H34.5835C34.5835 34.964 34.5819 35.6116 34.517 36.0946C34.4549 36.5561 34.3477 36.7536 34.2174 36.8839L34.7477 37.4142L35.278 37.9445C35.7335 37.4891 35.9192 36.9223 36.0036 36.2945C36.0851 35.6883 36.0835 34.9216 36.0835 34H35.3335ZM31.3335 38V38.75C32.2551 38.75 33.0218 38.7516 33.628 38.6701C34.2558 38.5857 34.8226 38.4 35.278 37.9445L34.7477 37.4142L34.2174 36.8839C34.0871 37.0142 33.8896 37.1214 33.4281 37.1835C32.9451 37.2484 32.2975 37.25 31.3335 37.25V38ZM23.3335 21V21.75C23.5472 21.75 23.7568 21.7657 23.9612 21.7959L24.0709 21.054L24.1805 20.3121C23.9037 20.2711 23.6208 20.25 23.3335 20.25V21ZM28.3335 18V17.25C26.023 17.25 24.0629 18.7421 23.3606 20.8131L24.0709 21.054L24.7811 21.2949C25.2833 19.814 26.6851 18.75 28.3335 18.75V18ZM24.0709 21.054L23.3606 20.8131C23.1807 21.3435 23.0835 21.9112 23.0835 22.5H23.8335H24.5835C24.5835 22.0771 24.6532 21.6721 24.7811 21.2949L24.0709 21.054ZM33.3335 21V20.25C33.0462 20.25 32.7633 20.2711 32.4865 20.3121L32.5961 21.054L32.7058 21.7959C32.9102 21.7657 33.1198 21.75 33.3335 21.75V21ZM28.3335 18V18.75C29.9819 18.75 31.3837 19.814 31.8859 21.2949L32.5961 21.054L33.3064 20.8131C32.6041 18.7421 30.644 17.25 28.3335 17.25V18ZM32.5961 21.054L31.8859 21.2949C32.0138 21.6721 32.0835 22.0771 32.0835 22.5H32.8335H33.5835C33.5835 21.9112 33.4863 21.3435 33.3064 20.8131L32.5961 21.054ZM21.3335 34H22.0835V30.584H21.3335H20.5835V34H21.3335ZM21.3335 30.584L21.6338 29.8967C20.1312 29.2402 19.0835 27.7416 19.0835 26H18.3335H17.5835C17.5835 28.359 19.004 30.3846 21.0332 31.2712L21.3335 30.584ZM35.3335 30.584H34.5835L34.5835 34H35.3335H36.0835L36.0835 30.584H35.3335ZM38.3335 26H37.5835C37.5835 27.7416 36.5358 29.2402 35.0332 29.8967L35.3335 30.584L35.6338 31.2712C37.663 30.3846 39.0835 28.359 39.0835 26H38.3335ZM32.8335 22.5H32.0835V23H32.8335H33.5835V22.5H32.8335ZM23.8335 22.5H23.0835V23H23.8335H24.5835V22.5H23.8335Z" fill="#1279BE"/>
<path d="M27.3764 29.6693L26.9327 30.274H26.9327L27.3764 29.6693ZM28.3335 25.9951L27.8148 26.5368C28.1048 26.8145 28.5621 26.8145 28.8522 26.5368L28.3335 25.9951ZM29.2906 29.6693L28.847 29.0646L29.2906 29.6693ZM28.3335 30.1313L28.3335 29.3813H28.3335L28.3335 30.1313ZM27.3764 29.6693L27.82 29.0646C27.4021 28.7579 26.9416 28.375 26.593 27.9718C26.2247 27.546 26.0835 27.215 26.0835 27.0004H25.3335H24.5835C24.5835 27.7703 25.0247 28.4516 25.4584 28.953C25.9117 29.4772 26.4726 29.9364 26.9327 30.274L27.3764 29.6693ZM25.3335 27.0004H26.0835C26.0835 26.4244 26.3461 26.1737 26.5754 26.0934C26.8257 26.0056 27.2893 26.0336 27.8148 26.5368L28.3335 25.9951L28.8522 25.4533C28.0278 24.664 26.9914 24.358 26.0792 24.6778C25.146 25.0049 24.5835 25.9033 24.5835 27.0004H25.3335ZM29.2906 29.6693L29.7343 30.274C30.1944 29.9364 30.7553 29.4772 31.2086 28.953C31.6423 28.4516 32.0835 27.7703 32.0835 27.0004H31.3335H30.5835C30.5835 27.215 30.4423 27.5461 30.074 27.9718C29.7254 28.375 29.2649 28.7579 28.847 29.0646L29.2906 29.6693ZM31.3335 27.0004H32.0835C32.0835 25.9032 31.521 25.0049 30.5878 24.6778C29.6756 24.358 28.6392 24.664 27.8148 25.4533L28.3335 25.9951L28.8522 26.5368C29.3777 26.0336 29.8413 26.0056 30.0916 26.0933C30.3209 26.1737 30.5835 26.4244 30.5835 27.0004H31.3335ZM27.3764 29.6693L26.9327 30.274C27.3013 30.5444 27.7151 30.8813 28.3335 30.8813L28.3335 30.1313L28.3335 29.3813C28.3091 29.3813 28.294 29.3812 28.2396 29.3525C28.1537 29.3071 28.0463 29.2306 27.82 29.0646L27.3764 29.6693ZM29.2906 29.6693L28.847 29.0646C28.6207 29.2306 28.5133 29.3071 28.4274 29.3525C28.373 29.3812 28.3579 29.3813 28.3335 29.3813L28.3335 30.1313L28.3335 30.8813C28.9519 30.8813 29.3657 30.5445 29.7343 30.274L29.2906 29.6693Z" fill="#1279BE"/>
<path d="M21.3335 34H35.3335" stroke="#1279BE" stroke-width="1.5" stroke-linecap="round" stroke-linejoin="round"/>
</svg>
