<svg width="56" height="56" viewBox="0 0 56 56" fill="none" xmlns="http://www.w3.org/2000/svg">
<rect width="56" height="56" rx="8" fill="#F3F6FD"/>
<path d="M28.8991 31.1272L22.8599 37.1662C21.7482 38.2779 19.9456 38.2779 18.8338 37.1662C17.7221 36.0545 17.7221 34.252 18.8338 33.1402L24.873 27.1013M36.5484 19.4515C37.7565 20.6596 35.0984 24.1229 33.3278 25.8934C31.5573 27.6638 27.2887 31.1271 26.0806 29.9191M36.5484 19.4515C35.3403 18.2435 31.8775 20.9021 30.1069 22.6726C28.3364 24.4431 24.8725 28.711 26.0806 29.9191M36.5484 19.4515C38.772 21.675 38.3733 25.6787 35.8158 28.236C33.2584 30.7934 28.3041 32.1425 26.0806 29.9191M36.5484 19.4515C34.3249 17.2281 30.3211 17.6267 27.7636 20.1841C25.2062 22.7414 23.857 27.6956 26.0806 29.9191" stroke="#1279BE" stroke-width="1.5"/>
</svg>
