<svg width="40" height="41" viewBox="0 0 40 41" fill="none" xmlns="http://www.w3.org/2000/svg">
<circle cx="20" cy="21" r="20" fill="#1279BE"/>
<path d="M18.0376 14.3162L18.6866 15.4791C19.2723 16.5286 19.0372 17.9053 18.1147 18.8278C18.1147 18.8278 16.9958 19.9467 19.0245 21.9755C21.0532 24.0042 22.1722 22.8853 22.1722 22.8853C23.0947 21.9628 24.4714 21.7277 25.5209 22.3134L26.6838 22.9624C28.2686 23.8468 28.4557 26.0692 27.0628 27.4622C26.2258 28.2992 25.2004 28.9505 24.0669 28.9934C22.1588 29.0658 18.9183 28.5829 15.6677 25.3323C12.4171 22.0817 11.9342 18.8412 12.0066 16.9331C12.0495 15.7996 12.7008 14.7742 13.5378 13.9372C14.9308 12.5443 17.1532 12.7314 18.0376 14.3162Z" stroke="white" stroke-width="1.5" stroke-linecap="round"/>
</svg>
